<?xml version="1.0" encoding="UTF-8"?>
<svg width="40" height="40" viewBox="0 0 40 40" fill="none" xmlns="http://www.w3.org/2000/svg">
  <!-- Outer ring -->
  <circle cx="20" cy="20" r="19" stroke="url(#gradient1)" stroke-width="2" fill="none" opacity="0.8"/>
  
  <!-- Inner wave design -->
  <path d="M8 20C8 20 12 12 16 20C20 28 24 12 28 20C32 28 36 20 36 20" 
        stroke="url(#gradient2)" 
        stroke-width="3" 
        fill="none" 
        stroke-linecap="round"/>
  
  <!-- Dynamic accent wave -->
  <path d="M6 22C6 22 10 16 14 22C18 28 22 16 26 22C30 28 34 22 34 22" 
        stroke="url(#gradient3)" 
        stroke-width="2" 
        fill="none" 
        stroke-linecap="round" 
        opacity="0.7"/>
  
  <!-- Central point/logo mark -->
  <circle cx="20" cy="20" r="3" fill="url(#gradient4)"/>
  
  <!-- Gradients -->
  <defs>
    <linearGradient id="gradient1" x1="0%" y1="0%" x2="100%" y2="100%">
      <stop offset="0%" style="stop-color:#3B82F6;stop-opacity:1" />
      <stop offset="100%" style="stop-color:#06B6D4;stop-opacity:1" />
    </linearGradient>
    
    <linearGradient id="gradient2" x1="0%" y1="0%" x2="100%" y2="0%">
      <stop offset="0%" style="stop-color:#3B82F6;stop-opacity:1" />
      <stop offset="50%" style="stop-color:#06B6D4;stop-opacity:1" />
      <stop offset="100%" style="stop-color:#10B981;stop-opacity:1" />
    </linearGradient>
    
    <linearGradient id="gradient3" x1="0%" y1="0%" x2="100%" y2="0%">
      <stop offset="0%" style="stop-color:#06B6D4;stop-opacity:1" />
      <stop offset="100%" style="stop-color:#10B981;stop-opacity:1" />
    </linearGradient>
    
    <radialGradient id="gradient4" cx="50%" cy="50%" r="50%">
      <stop offset="0%" style="stop-color:#06B6D4;stop-opacity:1" />
      <stop offset="100%" style="stop-color:#3B82F6;stop-opacity:1" />
    </radialGradient>
  </defs>
</svg>